Coordinates
version=1
nRows=9
nColumns=24
inDegrees=yes

Units are S.I. units (second, meters, Newtons, ...)
Angles are in degrees.

endheader
time	pelvis_tilt	pelvis_list	pelvis_rotation	pelvis_tx	pelvis_ty	pelvis_tz	hip_flexion_r	hip_adduction_r	hip_rotation_r	knee_angle_r	ankle_angle_r	subtalar_angle_r	mtp_angle_r	hip_flexion_l	hip_adduction_l	hip_rotation_l	knee_angle_l	ankle_angle_l	subtalar_angle_l	mtp_angle_l	lumbar_extension	lumbar_bending	lumbar_rotation
      5.95500000	     -2.21121648	      8.94148198	     -5.42683878	      1.73194990	      1.01447917	     -0.22802287	      6.76958518	    -13.09139576	     -4.36570787	    -60.73693610	    -16.59497040	     -2.20090636	      0.00000000	     18.60816742	     10.74087920	     -8.00518272	    -19.05556170	     10.33933089	     -7.80783009	      0.00000000	     -7.62637359	    -11.65014892	      1.63909161
      5.96000000	     -2.12868751	      9.10697207	     -5.45244251	      1.73840680	      1.01499568	     -0.22836526	      7.55623027	    -13.24423212	     -4.17273659	    -61.80006608	    -15.97157520	     -2.33134813	      0.00000000	     18.05619548	     11.00282137	     -7.98206715	    -18.87533155	     10.71452683	     -7.73338069	      0.00000000	     -7.67389890	    -11.82426084	      1.49210110
      5.96500000	     -2.04717992	      9.24069227	     -5.48558494	      1.74476416	      1.01555242	     -0.22867864	      8.33810286	    -13.33581418	     -3.94292659	    -62.79816538	    -15.01047616	     -2.28065719	      0.00000000	     17.49560442	     11.23558406	     -7.93143104	    -18.66836822	     11.02043291	     -7.71469729	      0.00000000	     -7.73706822	    -11.95963835	      1.34550981
      5.97000000	     -1.96076624	      9.33905091	     -5.51065096	      1.75104017	      1.01615978	     -0.22900383	      9.10070015	    -13.37643955	     -3.72538561	    -63.71945620	    -13.80467819	     -2.12429704	      0.00000000	     16.92165547	     11.44424998	     -7.83859190	    -18.44166721	     11.24693637	     -7.79569453	      0.00000000	     -7.82673347	    -12.04875134	      1.20541041
      5.97500000	     -1.86482610	      9.41238498	     -5.50621885	      1.75737677	      1.01682053	     -0.22937330	      9.81698527	    -13.39077213	     -3.56159811	    -64.54419790	    -12.42956116	     -1.91144320	      0.00000000	     16.30301209	     11.64711188	     -7.65944105	    -18.16938606	     11.46912914	     -7.90054286	      0.00000000	     -7.91679919	    -12.10354456	      1.03190978
      5.98000000	     -1.76039687	      9.45599140	     -5.48281175	      1.76370213	      1.01753623	     -0.22978309	     10.49879650	    -13.37355793	     -3.43573034	    -65.28171493	    -10.91382200	     -1.64026163	      0.00000000	     15.65361817	     11.83390543	     -7.41335594	    -17.86515835	     11.65088445	     -8.05626549	      0.00000000	     -8.02171522	    -12.11662169	      0.84214049
      5.98500000	     -1.63265466	      9.49945333	     -5.45978334	      1.77006297	      1.01832132	     -0.23023644	     11.13841506	    -13.36293158	     -3.33613022	    -65.93282131	     -9.31380859	     -1.35571807	      0.00000000	     14.94065633	     12.04127954	     -7.05676050	    -17.48820693	     11.74003347	     -8.33327144	      0.00000000	     -8.14385754	    -12.12498130	      0.65512948
      5.99000000	     -1.52132771	      9.47915702	     -5.38305140	      1.77634977	      1.01913247	     -0.23072584	     11.75672791	    -13.28435655	     -3.30868693	    -66.49529444	     -7.64796456	     -1.04747646	      0.00000000	     14.24835965	     12.18322771	     -6.69034146	    -17.14128302	     11.83934737	     -8.55727264	      0.00000000	     -8.27507709	    -12.05355604	      0.43151440
      5.99500000	     -1.40387271	      9.44502516	     -5.29845319	      1.78264962	      1.01997325	     -0.23127573	     12.35232615	    -13.20056442	     -3.31404579	    -66.97790623	     -5.98277538	     -0.75454740	      0.00000000	     13.52144791	     12.32295745	     -6.24769863	    -16.74691506	     11.89610011	     -8.85934468	      0.00000000	     -8.40873737	    -11.95523691	      0.20057576
